<?xml version="1.0" encoding="utf-8"?>
<!-- Generator: Adobe Illustrator 23.0.3, SVG Export Plug-In . SVG Version: 6.00 Build 0)  -->
<svg version="1.1" id="Ebene_1" xmlns="http://www.w3.org/2000/svg" xmlns:xlink="http://www.w3.org/1999/xlink" x="0px" y="0px"
	 viewBox="0 0 150 686" style="enable-background:new 0 0 150 686;" xml:space="preserve">
<style type="text/css">
	.st0{enable-background:new    ;}
	.st1{fill:none;}
	.st2{fill:none;stroke:#FFFFFF;stroke-width:2;stroke-miterlimit:10;}
	.st3{fill:#FFFFFF;}
</style>
<g class="st0">
	<path class="st1" d="M53.1,80.6c0,3.4,0.1,10.9-4.5,14.5l-18,14.2c-0.4,0.3-0.9,0.6-1.4,0.6s-1-0.2-1.7-0.8L14,98.3
		c-2.7-2.2-5-6-4.9-15.3l0.1-22.4c0-5.3,1.2-10,7.1-13.7L35,35.2c0.7-0.5,1-0.8,1.4-0.8c0.3,0,0.6,0.1,1.2,0.5
		c1.4,0.8,15.5,6.7,15.5,17.3V80.6z M38.5,57.9c0-4.9-10.8-10.3-11.7-11.2c-0.3-0.3-0.5-0.4-0.7-0.4c-0.3,0-0.4,0.2-0.6,0.8
		c-0.2,1-2.5,5.8-2.5,8V84c0,5.2,12.2,11.2,13.8,11.8c0.3,0.1,0.6,0.2,0.8,0.2c0.8,0,0.9-0.7,0.9-1.9V57.9z"/>
	<path class="st1" d="M109.2,75.1c0,5.8-0.5,13-0.8,14c-0.6,2.3-17.2,20.5-22.1,20.5S69.4,98.8,67.7,94.8c-0.7-1.7-0.9-9.1-0.9-16.9
		c0-20.6-0.1-21.9,2.1-25c2.2-3.2,18-16.1,20.7-17.6c1.4-0.8,2.5-1.5,3.8-1.5c0.5,0,1.1,0.1,1.7,0.3c2.4,0.9,12.5,8.2,12.5,13.1
		c0,3.2-7.4,8.1-9,8.1c-0.7,0-0.9-1-1.6-2.2c-1-1.8-8.8-9-10.2-9c-2,0-6.1,2.8-6.1,3.9c-0.1,2.5-0.2,17.4-0.2,17.6
		c0,0.8,0.2,1.3,0.5,1.3c0.9,0,9.9-10,11-10c0.4,0,0.7,0.1,1.3,0.3c1.9,0.8,13.9,8,15.2,10.2C109,68.3,109.2,71.4,109.2,75.1z
		 M96.8,82.3c0-2.9-0.1-5.2-0.3-5.9c-0.8-1.8-9.3-7.5-10.9-7.5c-3.2,0-4.9,5.1-4.9,6.2c0,1.1,0,11.4,0.2,13.2
		c0.2,1.5,1.2,2.5,2.8,3.9c1.8,1.6,8.8,5.4,10.4,5.4c1.7,0,2.4-2,2.4-3C96.6,93.9,96.8,87.3,96.8,82.3z"/>
	<path class="st1" d="M132.3,107.6c-1.1-2.8-4.3-6.4-7.1-7.8l-1.2,1.1c-0.6,0.4-1,0.1-0.4-0.5c2.3-2.1,7.3-5.7,8.6-8.1
		c1.5,2.9,4,6.3,7.1,7.8l1.4-1.2c0.6-0.6,0.7,0.2,0.5,0.4C138.9,101.5,134.6,104.7,132.3,107.6z"/>
</g>
<g class="st0">
	<path class="st2" d="M53.1,80.6c0,3.4,0.1,10.9-4.5,14.5l-18,14.2c-0.4,0.3-0.9,0.6-1.4,0.6s-1-0.2-1.7-0.8L14,98.3
		c-2.7-2.2-5-6-4.9-15.3l0.1-22.4c0-5.3,1.2-10,7.1-13.7L35,35.2c0.7-0.5,1-0.8,1.4-0.8c0.3,0,0.6,0.1,1.2,0.5
		c1.4,0.8,15.5,6.7,15.5,17.3V80.6z M38.5,57.9c0-4.9-10.8-10.3-11.7-11.2c-0.3-0.3-0.5-0.4-0.7-0.4c-0.3,0-0.4,0.2-0.6,0.8
		c-0.2,1-2.5,5.8-2.5,8V84c0,5.2,12.2,11.2,13.8,11.8c0.3,0.1,0.6,0.2,0.8,0.2c0.8,0,0.9-0.7,0.9-1.9V57.9z"/>
	<path class="st2" d="M109.2,75.1c0,5.8-0.5,13-0.8,14c-0.6,2.3-17.2,20.5-22.1,20.5S69.4,98.8,67.7,94.8c-0.7-1.7-0.9-9.1-0.9-16.9
		c0-20.6-0.1-21.9,2.1-25c2.2-3.2,18-16.1,20.7-17.6c1.4-0.8,2.5-1.5,3.8-1.5c0.5,0,1.1,0.1,1.7,0.3c2.4,0.9,12.5,8.2,12.5,13.1
		c0,3.2-7.4,8.1-9,8.1c-0.7,0-0.9-1-1.6-2.2c-1-1.8-8.8-9-10.2-9c-2,0-6.1,2.8-6.1,3.9c-0.1,2.5-0.2,17.4-0.2,17.6
		c0,0.8,0.2,1.3,0.5,1.3c0.9,0,9.9-10,11-10c0.4,0,0.7,0.1,1.3,0.3c1.9,0.8,13.9,8,15.2,10.2C109,68.3,109.2,71.4,109.2,75.1z
		 M96.8,82.3c0-2.9-0.1-5.2-0.3-5.9c-0.8-1.8-9.3-7.5-10.9-7.5c-3.2,0-4.9,5.1-4.9,6.2c0,1.1,0,11.4,0.2,13.2
		c0.2,1.5,1.2,2.5,2.8,3.9c1.8,1.6,8.8,5.4,10.4,5.4c1.7,0,2.4-2,2.4-3C96.6,93.9,96.8,87.3,96.8,82.3z"/>
	<path class="st2" d="M132.3,107.6c-1.1-2.8-4.3-6.4-7.1-7.8l-1.2,1.1c-0.6,0.4-1,0.1-0.4-0.5c2.3-2.1,7.3-5.7,8.6-8.1
		c1.5,2.9,4,6.3,7.1,7.8l1.4-1.2c0.6-0.6,0.7,0.2,0.5,0.4C138.9,101.5,134.6,104.7,132.3,107.6z"/>
</g>
<g class="st0">
	<path class="st1" d="M95,197.3v14H55v-14H95z"/>
</g>
<g class="st0">
	<path class="st2" d="M95,197.3v14H55v-14H95z"/>
</g>
<g class="st0">
	<path class="st1" d="M51.1,340.6c0,3.4,0.1,10.9-4.5,14.5l-18,14.2c-0.4,0.3-0.9,0.6-1.4,0.6s-1-0.2-1.7-0.8L12,358.3
		c-2.7-2.2-5-6-4.9-15.3l0.1-22.4c0-5.3,1.2-10,7.1-13.7L33,295.2c0.7-0.5,1-0.8,1.4-0.8c0.3,0,0.6,0.1,1.2,0.5
		c1.4,0.8,15.5,6.7,15.5,17.3V340.6z M36.5,317.9c0-4.9-10.8-10.3-11.7-11.2c-0.3-0.3-0.5-0.4-0.7-0.4c-0.3,0-0.4,0.2-0.6,0.8
		c-0.2,1-2.5,5.8-2.5,8V344c0,5.2,12.2,11.2,13.8,11.8c0.3,0.1,0.6,0.2,0.8,0.2c0.8,0,0.9-0.7,0.9-1.9V317.9z"/>
	<path class="st1" d="M99,319.9c-2.8,6.1-4.6,11.7-4.6,17.1c0,12,7.3,16.5,8.2,16.6c0.3,0.1,0.5,0.3,0.5,0.7c0,0.8-1,2.6-1.9,3.5
		c-1.6,1.6-9.8,10.8-11.3,10.8c-2.2,0-11.2-3.3-11.2-13.3c0-11.1,7.4-23.8,12.3-31.3c5.3-8.1,8.1-13.1,8.1-12.7
		c0-0.1-0.2-0.2-0.4-0.2c-0.5,0-1.7,0.3-2.2,0.3c-3.2,0-17.9,0.6-21.3,0.6c-4.1,0-8.4-0.1-9-0.1c-2.2,0-3.6,3.4-5.6,5.1
		c-0.2,0.2-0.5,0.2-0.7,0.2c-0.6,0-1.2-0.3-1.2-1c0-0.4,0.2-0.9,0.6-1.6c1.5-2.4,10.1-16.7,10.4-17.8c0.3-1.1,0.8-1.7,2.2-1.7
		c0.4,0,0.7,0.1,1.2,0.1c2.5,0.3,20.7,1.1,26.7,1.1c6,0,12-0.1,13.7-2c0.5-0.5,1-0.8,1.3-0.8c0.4,0,0.6,0.3,0.6,0.6
		c0,0.4-0.4,1-1.1,1.6C112.3,297.2,102.8,311.3,99,319.9z"/>
	<path class="st1" d="M134.3,367.6c-1.1-2.8-4.3-6.4-7.1-7.8l-1.2,1.1c-0.6,0.4-1,0.1-0.4-0.5c2.3-2.1,7.3-5.7,8.6-8.1
		c1.5,2.9,4,6.3,7.1,7.8l1.4-1.2c0.6-0.6,0.7,0.2,0.5,0.4C140.9,361.5,136.6,364.7,134.3,367.6z"/>
</g>
<g class="st0">
	<path class="st2" d="M51.1,340.6c0,3.4,0.1,10.9-4.5,14.5l-18,14.2c-0.4,0.3-0.9,0.6-1.4,0.6s-1-0.2-1.7-0.8L12,358.3
		c-2.7-2.2-5-6-4.9-15.3l0.1-22.4c0-5.3,1.2-10,7.1-13.7L33,295.2c0.7-0.5,1-0.8,1.4-0.8c0.3,0,0.6,0.1,1.2,0.5
		c1.4,0.8,15.5,6.7,15.5,17.3V340.6z M36.5,317.9c0-4.9-10.8-10.3-11.7-11.2c-0.3-0.3-0.5-0.4-0.7-0.4c-0.3,0-0.4,0.2-0.6,0.8
		c-0.2,1-2.5,5.8-2.5,8V344c0,5.2,12.2,11.2,13.8,11.8c0.3,0.1,0.6,0.2,0.8,0.2c0.8,0,0.9-0.7,0.9-1.9V317.9z"/>
	<path class="st2" d="M99,319.9c-2.8,6.1-4.6,11.7-4.6,17.1c0,12,7.3,16.5,8.2,16.6c0.3,0.1,0.5,0.3,0.5,0.7c0,0.8-1,2.6-1.9,3.5
		c-1.6,1.6-9.8,10.8-11.3,10.8c-2.2,0-11.2-3.3-11.2-13.3c0-11.1,7.4-23.8,12.3-31.3c5.3-8.1,8.1-13.1,8.1-12.7
		c0-0.1-0.2-0.2-0.4-0.2c-0.5,0-1.7,0.3-2.2,0.3c-3.2,0-17.9,0.6-21.3,0.6c-4.1,0-8.4-0.1-9-0.1c-2.2,0-3.6,3.4-5.6,5.1
		c-0.2,0.2-0.5,0.2-0.7,0.2c-0.6,0-1.2-0.3-1.2-1c0-0.4,0.2-0.9,0.6-1.6c1.5-2.4,10.1-16.7,10.4-17.8c0.3-1.1,0.8-1.7,2.2-1.7
		c0.4,0,0.7,0.1,1.2,0.1c2.5,0.3,20.7,1.1,26.7,1.1c6,0,12-0.1,13.7-2c0.5-0.5,1-0.8,1.3-0.8c0.4,0,0.6,0.3,0.6,0.6
		c0,0.4-0.4,1-1.1,1.6C112.3,297.2,102.8,311.3,99,319.9z"/>
	<path class="st2" d="M134.3,367.6c-1.1-2.8-4.3-6.4-7.1-7.8l-1.2,1.1c-0.6,0.4-1,0.1-0.4-0.5c2.3-2.1,7.3-5.7,8.6-8.1
		c1.5,2.9,4,6.3,7.1,7.8l1.4-1.2c0.6-0.6,0.7,0.2,0.5,0.4C140.9,361.5,136.6,364.7,134.3,367.6z"/>
</g>
<g class="st0">
	<path class="st3" d="M53.1,470.6c0,3.4,0.1,10.9-4.5,14.5l-18,14.2c-0.4,0.3-0.9,0.6-1.4,0.6s-1-0.2-1.7-0.8L14,488.3
		c-2.7-2.2-5-6-4.9-15.3l0.1-22.4c0-5.3,1.2-10,7.1-13.7L35,425.2c0.7-0.5,1-0.8,1.4-0.8c0.3,0,0.6,0.1,1.2,0.5
		c1.4,0.8,15.5,6.7,15.5,17.3V470.6z M38.5,447.9c0-4.9-10.8-10.3-11.7-11.2c-0.3-0.3-0.5-0.4-0.7-0.4c-0.3,0-0.4,0.2-0.6,0.8
		c-0.2,1-2.5,5.8-2.5,8V474c0,5.2,12.2,11.2,13.8,11.8c0.3,0.1,0.6,0.2,0.8,0.2c0.8,0,0.9-0.7,0.9-1.9V447.9z"/>
	<path class="st3" d="M109.2,465.1c0,5.8-0.5,13-0.8,14c-0.6,2.3-17.2,20.5-22.1,20.5s-16.9-10.8-18.6-14.8
		c-0.7-1.7-0.9-9.1-0.9-16.9c0-20.6-0.1-21.9,2.1-25c2.2-3.2,18-16.1,20.7-17.6c1.4-0.8,2.5-1.5,3.8-1.5c0.5,0,1.1,0.1,1.7,0.3
		c2.4,0.9,12.5,8.2,12.5,13.1c0,3.2-7.4,8.1-9,8.1c-0.7,0-0.9-1-1.6-2.2c-1-1.8-8.8-9-10.2-9c-2,0-6.1,2.8-6.1,3.9
		c-0.1,2.5-0.2,17.4-0.2,17.6c0,0.8,0.2,1.3,0.5,1.3c0.9,0,9.9-10,11-10c0.4,0,0.7,0.1,1.3,0.3c1.9,0.8,13.9,8,15.2,10.2
		C109,458.3,109.2,461.4,109.2,465.1z M96.8,472.3c0-2.9-0.1-5.2-0.3-5.9c-0.8-1.8-9.3-7.5-10.9-7.5c-3.2,0-4.9,5.1-4.9,6.2
		c0,1.1,0,11.4,0.2,13.2c0.2,1.5,1.2,2.5,2.8,3.9c1.8,1.6,8.8,5.4,10.4,5.4c1.7,0,2.4-2,2.4-3C96.6,483.9,96.8,477.3,96.8,472.3z"/>
	<path class="st3" d="M132.3,497.6c-1.1-2.8-4.3-6.4-7.1-7.8l-1.2,1.1c-0.6,0.4-1,0.1-0.4-0.5c2.3-2.1,7.3-5.7,8.6-8.1
		c1.5,2.9,4,6.3,7.1,7.8l1.4-1.2c0.6-0.6,0.7,0.2,0.5,0.4C138.9,491.5,134.6,494.7,132.3,497.6z"/>
</g>
<g class="st0">
	<path class="st2" d="M53.1,470.6c0,3.4,0.1,10.9-4.5,14.5l-18,14.2c-0.4,0.3-0.9,0.6-1.4,0.6s-1-0.2-1.7-0.8L14,488.3
		c-2.7-2.2-5-6-4.9-15.3l0.1-22.4c0-5.3,1.2-10,7.1-13.7L35,425.2c0.7-0.5,1-0.8,1.4-0.8c0.3,0,0.6,0.1,1.2,0.5
		c1.4,0.8,15.5,6.7,15.5,17.3V470.6z M38.5,447.9c0-4.9-10.8-10.3-11.7-11.2c-0.3-0.3-0.5-0.4-0.7-0.4c-0.3,0-0.4,0.2-0.6,0.8
		c-0.2,1-2.5,5.8-2.5,8V474c0,5.2,12.2,11.2,13.8,11.8c0.3,0.1,0.6,0.2,0.8,0.2c0.8,0,0.9-0.7,0.9-1.9V447.9z"/>
	<path class="st2" d="M109.2,465.1c0,5.8-0.5,13-0.8,14c-0.6,2.3-17.2,20.5-22.1,20.5s-16.9-10.8-18.6-14.8
		c-0.7-1.7-0.9-9.1-0.9-16.9c0-20.6-0.1-21.9,2.1-25c2.2-3.2,18-16.1,20.7-17.6c1.4-0.8,2.5-1.5,3.8-1.5c0.5,0,1.1,0.1,1.7,0.3
		c2.4,0.9,12.5,8.2,12.5,13.1c0,3.2-7.4,8.1-9,8.1c-0.7,0-0.9-1-1.6-2.2c-1-1.8-8.8-9-10.2-9c-2,0-6.1,2.8-6.1,3.9
		c-0.1,2.5-0.2,17.4-0.2,17.6c0,0.8,0.2,1.3,0.5,1.3c0.9,0,9.9-10,11-10c0.4,0,0.7,0.1,1.3,0.3c1.9,0.8,13.9,8,15.2,10.2
		C109,458.3,109.2,461.4,109.2,465.1z M96.8,472.3c0-2.9-0.1-5.2-0.3-5.9c-0.8-1.8-9.3-7.5-10.9-7.5c-3.2,0-4.9,5.1-4.9,6.2
		c0,1.1,0,11.4,0.2,13.2c0.2,1.5,1.2,2.5,2.8,3.9c1.8,1.6,8.8,5.4,10.4,5.4c1.7,0,2.4-2,2.4-3C96.6,483.9,96.8,477.3,96.8,472.3z"/>
	<path class="st2" d="M132.3,497.6c-1.1-2.8-4.3-6.4-7.1-7.8l-1.2,1.1c-0.6,0.4-1,0.1-0.4-0.5c2.3-2.1,7.3-5.7,8.6-8.1
		c1.5,2.9,4,6.3,7.1,7.8l1.4-1.2c0.6-0.6,0.7,0.2,0.5,0.4C138.9,491.5,134.6,494.7,132.3,497.6z"/>
</g>
</svg>
